<?xml version="1.0" encoding="UTF-8"?><svg id="Camada_8" xmlns="http://www.w3.org/2000/svg" viewBox="0 0 960 560"><path d="M346.9019,476.4004v-13.3481h8.2568v1.3159h-6.6553v4.6528h6.083v1.2964h-6.083v4.7671h6.6553v1.3159h-8.2568Z" fill="#4a101c"/><path d="M356.8555,476.4004v-13.3481h2.1167l6.5405,11.3457h.0571v-11.3457h1.6016v13.3481h-2.1167l-6.5405-11.3457h-.0571v11.3457h-1.6016Z" fill="#4a101c"/><path d="M375.0469,476.6294c-1.2334,0-2.3105-.2891-3.2319-.8677-.9219-.5786-1.6372-1.3828-2.1455-2.4121-.5083-1.0298-.7627-2.2314-.7627-3.604,0-1.3604.2637-2.5615.7915-3.604.5273-1.0425,1.2773-1.856,2.25-2.4409.9727-.5845,2.1196-.8774,3.4419-.8774,1.5,0,2.752.3594,3.7563,1.0776s1.6465,1.7192,1.9263,3.0034h-1.8496c-.1782-.8013-.5977-1.4365-1.2588-1.9072-.6611-.4702-1.519-.7056-2.5742-.7056-.979,0-1.834.2197-2.5649.6582s-1.2935,1.0649-1.6875,1.8779c-.394.814-.5908,1.7866-.5908,2.918s.1968,2.1069.5908,2.9268.9438,1.4463,1.6494,1.8784,1.5161.6484,2.4316.6484c1.4233,0,2.4976-.4194,3.2222-1.2588.7246-.8389,1.1377-1.9766,1.2397-3.4131h-3.8521v-1.2588h5.4917v7.1318h-1.4302l-.1714-2.5933h-.0571c-.3306.6099-.7217,1.125-1.1729,1.5444s-.9565.7373-1.5161.9536c-.5596.2158-1.2012.3242-1.9258.3242Z" fill="#4a101c"/><path d="M383.2466,476.4004v-13.3481h8.2568v1.3159h-6.6553v4.6528h6.083v1.2964h-6.083v4.7671h6.6553v1.3159h-8.2568Z" fill="#4a101c"/><path d="M393.2002,476.4004v-13.3481h2.1167l6.5405,11.3457h.0571v-11.3457h1.6016v13.3481h-2.1167l-6.5405-11.3457h-.0571v11.3457h-1.6016Z" fill="#4a101c"/><path d="M405.5186,476.4004v-13.3481h1.6016v13.3481h-1.6016ZM406.8149,470.2603v-1.3159h7.6279v1.3159h-7.6279ZM414.042,476.4004v-13.3481h1.6021v13.3481h-1.6021Z" fill="#4a101c"/><path d="M416.8643,476.4004l4.6523-13.3481h2.2886l4.5767,13.3481h-1.6973l-4.0044-11.9561h-.0571l-4.0811,11.9561h-1.6777ZM419.1143,472.415l.4575-1.2969h6.0449l.4575,1.2969h-6.96Z" fill="#4a101c"/><path d="M429.3159,476.4004v-13.3481h4.3096c1.042,0,1.894.1748,2.5552.5244.6606.3496,1.1504.8169,1.4683,1.4014.3174.585.4766,1.2461.4766,1.9834,0,.7119-.1621,1.3667-.4863,1.9639-.3242.5977-.8232,1.0747-1.4966,1.4302-.6743.356-1.5386.5342-2.5938.5342h-2.6313v5.5107h-1.6016ZM430.9175,469.6309h2.5933c1.0171,0,1.7642-.2476,2.2407-.7437.4766-.4956.7153-1.1313.7153-1.9067,0-.7881-.2324-1.4141-.6963-1.8784-.4644-.4639-1.2236-.6958-2.2788-.6958h-2.5742v5.2246ZM436.3711,476.4004l-2.9365-5.9688h1.7925l3.0322,5.9688h-1.8882Z" fill="#4a101c"/><path d="M439.7085,476.4004v-13.3481h1.6016v13.3481h-1.6016Z" fill="#4a101c"/><path d="M442.5308,476.4004l4.6523-13.3481h2.2886l4.5767,13.3481h-1.6973l-4.0044-11.9561h-.0571l-4.0811,11.9561h-1.6777ZM444.7808,472.415l.4575-1.2969h6.0449l.4575,1.2969h-6.96Z" fill="#4a101c"/><path d="M458.6055,476.4004l4.6523-13.3481h2.2886l4.5767,13.3481h-1.6973l-4.0044-11.9561h-.0571l-4.0811,11.9561h-1.6777ZM460.8555,472.415l.4575-1.2969h6.0449l.4575,1.2969h-6.96Z" fill="#4a101c"/><path d="M471.0571,476.4004v-13.3481h4.3857c1.0552,0,1.9165.1714,2.584.5146.667.3433,1.1631.8076,1.4873,1.3921.3242.585.4863,1.2461.4863,1.9834,0,.7246-.1592,1.3794-.4771,1.9639-.3179.585-.8135,1.0522-1.4873,1.4019s-1.5381.5244-2.5933.5244h-2.7842v5.5679h-1.6016ZM472.6587,469.4785h2.7461c1.0552,0,1.8115-.229,2.269-.6865s.6865-1.0742.6865-1.8496c0-.8135-.229-1.4429-.6865-1.8877-.4575-.4453-1.2139-.6675-2.269-.6675h-2.7461v5.0913Z" fill="#4a101c"/><path d="M481.4492,476.4004v-13.3481h1.6016v12.0703h6.2168v1.2778h-7.8184Z" fill="#4a101c"/><path d="M490.6787,476.4004v-13.3481h1.6016v13.3481h-1.6016Z" fill="#4a101c"/><path d="M500.3848,476.6294c-1.3096,0-2.4414-.2891-3.3945-.8677s-1.6875-1.3857-2.2021-2.4219c-.5156-1.0361-.7725-2.2407-.7725-3.6138s.2568-2.5771.7725-3.6133c.5146-1.0361,1.249-1.8433,2.2021-2.4219.9531-.5781,2.085-.8677,3.3945-.8677,1.5381,0,2.7832.3623,3.7373,1.0869.9531.7246,1.5635,1.748,1.8301,3.0703h-1.7734c-.2031-.8262-.6162-1.4873-1.2393-1.9834-.623-.4956-1.4746-.7437-2.5547-.7437-.9541,0-1.7861.2192-2.498.6582-.7129.4385-1.2617,1.0679-1.6494,1.8877-.3887.8198-.582,1.7959-.582,2.9268,0,1.1318.1934,2.1074.582,2.9272.3877.8198.9365,1.4492,1.6494,1.8877.7119.439,1.5439.6582,2.498.6582,1.0801,0,1.9385-.2446,2.5742-.7344.6348-.4893,1.0547-1.1348,1.2578-1.9355h1.7354c-.2666,1.2842-.877,2.2886-1.8301,3.0132-.9541.7246-2.1992,1.0869-3.7373,1.0869Z" fill="#4a101c"/><path d="M506.5625,476.4004l4.6523-13.3481h2.2891l4.5762,13.3481h-1.6973l-4.0039-11.9561h-.0576l-4.0811,11.9561h-1.6777ZM508.8125,472.415l.458-1.2969h6.0449l.457,1.2969h-6.96Z" fill="#4a101c"/><path d="M522.6377,476.4004l4.6523-13.3481h2.2881l4.5771,13.3481h-1.6973l-4.0049-11.9561h-.0566l-4.0811,11.9561h-1.6777ZM524.8877,472.415l.457-1.2969h6.0449l.458,1.2969h-6.96ZM530.417,462.2324l-4.0039-2.231v-1.4878h.0566l3.9473,2.3267v1.3921Z" fill="#4a101c"/><path d="M539.4941,476.4004v-13.3481h2.25l4.4043,9.8965h.0576l4.3857-9.8965h2.2314v13.3481h-1.6025v-10.812h-.0566l-4.0049,8.9053h-1.9824l-4.0244-8.9053h-.0566v10.812h-1.6016Z" fill="#4a101c"/><path d="M554.043,476.4004l4.6523-13.3481h2.2891l4.5762,13.3481h-1.6973l-4.0039-11.9561h-.0576l-4.0811,11.9561h-1.6777ZM556.293,472.415l.458-1.2969h6.0449l.457,1.2969h-6.96Z" fill="#4a101c"/><path d="M566.4951,476.4004v-13.3481h4.0996c1.5635,0,2.8545.27,3.8711.8105s1.7705,1.3096,2.2598,2.3071c.4893.998.7344,2.1963.7344,3.5947,0,1.3726-.2451,2.5552-.7344,3.5464-.4893.9917-1.2432,1.7544-2.2598,2.2886-1.0166.5337-2.3076.8008-3.8711.8008h-4.0996ZM568.0967,475.0654h2.46c1.2969,0,2.3301-.2124,3.0986-.6387.7695-.4258,1.3193-1.0361,1.6494-1.8306.3311-.7944.4961-1.7383.4961-2.8315,0-1.1187-.165-2.0786-.4961-2.8794-.3301-.8013-.8799-1.4175-1.6494-1.8501-.7686-.4316-1.8018-.6479-3.0986-.6479h-2.46v10.6782Z" fill="#4a101c"/><path d="M579.1758,476.4004v-13.3481h8.2568v1.3159h-6.6553v4.6528h6.083v1.2964h-6.083v4.7671h6.6553v1.3159h-8.2568Z" fill="#4a101c"/><path d="M589.1299,476.4004v-13.3481h1.6016v13.3481h-1.6016Z" fill="#4a101c"/><path d="M592.7334,476.4004v-13.3481h4.3096c1.042,0,1.8945.1748,2.5557.5244.6602.3496,1.1504.8169,1.4678,1.4014.3174.585.4766,1.2461.4766,1.9834,0,.7119-.1621,1.3667-.4863,1.9639-.3242.5977-.8232,1.0747-1.4961,1.4302-.6748.356-1.5391.5342-2.5938.5342h-2.6318v5.5107h-1.6016ZM594.335,469.6309h2.5938c1.0166,0,1.7637-.2476,2.2402-.7437.4766-.4956.7158-1.1313.7158-1.9067,0-.7881-.2324-1.4141-.6963-1.8784-.4648-.4639-1.2236-.6958-2.2793-.6958h-2.5742v5.2246ZM599.7891,476.4004l-2.9365-5.9688h1.792l3.0322,5.9688h-1.8877Z" fill="#4a101c"/><path d="M602.3438,476.4004l4.6523-13.3481h2.2891l4.5762,13.3481h-1.6973l-4.0039-11.9561h-.0576l-4.0811,11.9561h-1.6777ZM604.5938,472.415l.458-1.2969h6.0449l.457,1.2969h-6.96Z" fill="#4a101c"/><path d="M386.6758,395.5522l17.3428-37.937h3.9561l17.3428,37.937h-4.2275l-15.9336-35.6064h1.626l-15.9336,35.6064h-4.1729ZM393.5044,385.4175l1.1924-3.2515h22.0576l1.1924,3.2515h-24.4424Z" fill="#4a101c"/><path d="M437.0229,395.5522v-37.937h14.1992c4.8047,0,8.5898,1.1475,11.354,3.4414,2.7642,2.2949,4.146,5.4834,4.146,9.5654,0,2.6743-.623,4.9775-1.8696,6.9102-1.2466,1.9331-3.0264,3.4146-5.3384,4.4438-2.3125,1.0298-5.0767,1.5449-8.292,1.5449h-11.9771l1.7886-1.8428v13.874h-4.0107ZM441.0337,382.0034l-1.7886-1.897h11.8687c3.7939,0,6.6748-.8306,8.644-2.4927,1.9692-1.6616,2.9541-3.9922,2.9541-6.9917,0-3.0347-.9849-5.3828-2.9541-7.0454-1.9692-1.6611-4.8501-2.4927-8.644-2.4927h-11.8687l1.7886-1.897v22.8164ZM462.9287,395.5522l-9.7554-13.7656h4.3354l9.8096,13.7656h-4.3896Z" fill="#4a101c"/><path d="M475.5557,395.5522l17.3428-37.937h3.9561l17.3428,37.937h-4.2275l-15.9336-35.6064h1.626l-15.9336,35.6064h-4.1729ZM482.3838,385.4175l1.1924-3.2515h22.0576l1.1924,3.2515h-24.4424Z" fill="#4a101c"/><path d="M525.9023,395.5522v-37.937h4.0107v34.4683h21.2451v3.4688h-25.2559Z" fill="#4a101c"/><path d="M563.2432,395.5522v-37.937h4.0107v37.937h-4.0107Z" fill="#4a101c"/><path d="M464.0188,221.7751c-6.6152,5.5758-17.0487,15.461-26.4717,30.049-6.8533,10.6098-10.213,19.2359-16.9324,36.4881-4.4631,11.4591-7.6497,21.2196-9.7779,28.2071h-16.2169c21.381-61.8964,42.7619-123.7928,64.1429-185.6892,2.762,7.665,5.5241,15.3301,8.2862,22.9951-7.6876,22.8885-15.3752,45.7769-23.0628,68.6654,6.6776-4.6107,13.3551-9.2214,20.0327-13.8321,5.4852.4142,10.9703.8283,16.4554,1.2425-4.4254,2.7119-10.1947,6.5972-16.4554,11.8742Z" fill="#4a101c"/><path d="M565.3746,316.5193c-7.2696,0-14.5391,0-21.8087,0-5.2083-10.987-12.9517-24.4833-24.4097-38.32-17.5919-21.2441-36.5657-34.3095-49.9476-41.9545,5.9755.089,11.9511.1779,17.9266.2669,5.9089,4.2421,12.1609,8.5277,18.7599,12.8081,5.8982,3.8258,11.681,7.3929,17.3182,10.7185-21.4432-60.3696-42.8864-120.7391-64.3296-181.1087,6.8025-.096,13.6051-.1921,20.4076-.2881,28.6944,79.2926,57.3889,158.5852,86.0833,237.8778Z" fill="#4a101c"/></svg>